<svg width="16" height="16" viewBox="0 0 16 16" fill="none" xmlns="http://www.w3.org/2000/svg"><g id="icon">
<path d="M4.66668 10.888C4.42122 10.888 4.22224 11.087 4.22224 11.3325V11.339C4.22224 11.5844 4.42122 11.7834 4.66668 11.7834C4.91214 11.7834 5.11112 11.5844 5.11112 11.339V11.3325C5.11112 11.087 4.91214 10.888 4.66668 10.888Z" fill="#E8EAEE"/>
<path fill-rule="evenodd" clip-rule="evenodd" d="M3.33335 1.55469C2.86185 1.55469 2.4098 1.74212 2.0764 2.07552C1.743 2.40892 1.55557 2.86097 1.55557 3.33247V11.3325C1.55557 12.1576 1.88315 12.9491 2.46659 13.5326C3.05004 14.116 3.84156 14.4436 4.66668 14.4436H12.6667C13.1382 14.4436 13.5902 14.2561 13.9236 13.9227C14.257 13.5893 14.4445 13.1373 14.4445 12.6658V9.99913C14.4445 9.52764 14.257 9.07559 13.9236 8.74219C13.5902 8.40879 13.1382 8.22135 12.6667 8.22135H12.181L12.7517 7.65061C13.085 7.31723 13.2721 6.86503 13.2721 6.39366C13.2721 5.92231 13.085 5.47007 12.7517 5.13672L10.8663 3.25174C10.533 2.91849 10.0808 2.73091 9.60939 2.7309C9.13802 2.7309 8.68582 2.91807 8.35244 3.2513L7.77779 3.82639V3.33247C7.77779 2.86097 7.59036 2.40892 7.25696 2.07552C6.92356 1.74212 6.47151 1.55469 6.00001 1.55469H3.33335ZM12.6667 9.11024C12.9024 9.11024 13.1285 9.20396 13.2952 9.37066C13.4619 9.53736 13.5556 9.76338 13.5556 9.99913V12.6658C13.5556 12.9015 13.4619 13.1276 13.2952 13.2943C13.1285 13.461 12.9024 13.5547 12.6667 13.5547H6.84767L11.2921 9.11024H12.6667ZM6.00001 2.44358C6.23576 2.44358 6.46179 2.53729 6.62849 2.70399C6.79518 2.87069 6.8889 3.09672 6.8889 3.33247V11.3325L6.8863 11.4427C6.85904 11.9919 6.62855 12.513 6.23786 12.9036C5.82111 13.3204 5.25605 13.5547 4.66668 13.5547C4.07731 13.5547 3.51225 13.3204 3.0955 12.9036C2.67875 12.4869 2.44446 11.9218 2.44446 11.3325V3.33247C2.44446 3.09672 2.53818 2.87069 2.70487 2.70399C2.87157 2.53729 3.0976 2.44358 3.33335 2.44358H6.00001ZM9.60939 3.61979C9.84508 3.6198 10.0712 3.71358 10.2379 3.88021L12.1228 5.76519C12.2895 5.93185 12.3832 6.15801 12.3833 6.39366C12.3833 6.62936 12.2895 6.85544 12.1228 7.02214L7.77692 11.3685C7.77706 11.3565 7.77779 11.3445 7.77779 11.3325V5.08333L8.98092 3.88021C9.14761 3.71357 9.37369 3.61979 9.60939 3.61979Z" fill="#E8EAEE"/>
</g></svg>