<svg width="16" height="16" viewBox="0 0 16 16" fill="none" xmlns="http://www.w3.org/2000/svg"><path id="icon" fill-rule="evenodd" clip-rule="evenodd" d="M8.00001 1.44531C10.2682 1.44531 12.1111 3.2882 12.1111 5.55642C12.1111 5.92569 12.0609 6.2853 11.9692 6.62674C13.4814 7.23193 14.5555 8.71762 14.5556 10.4453C14.5555 12.7135 12.7127 14.5564 10.4445 14.5564C9.52783 14.5564 8.68253 14.2559 8.00001 13.7457C7.3175 14.2559 6.4722 14.5564 5.55557 14.5564C3.28737 14.5564 1.44452 12.7135 1.44446 10.4453C1.44452 8.71763 2.51859 7.23193 4.03083 6.62674C3.93898 6.28534 3.8889 5.92571 3.8889 5.55642C3.88892 3.2882 5.73178 1.44531 8.00001 1.44531ZM4.35288 7.45486C3.1722 7.93098 2.3334 9.09537 2.33335 10.4453C2.33341 12.2226 3.77829 13.6675 5.55557 13.6675C6.38251 13.6675 7.13289 13.3568 7.70184 12.8416L7.70531 12.8385C8.32345 12.2908 8.7252 11.5021 8.77302 10.6224L8.77779 10.4453C8.77778 10.1579 8.73912 9.87863 8.66885 9.61415C8.65287 9.61675 8.63671 9.61825 8.62067 9.62066C8.59037 9.62524 8.56003 9.62979 8.52953 9.63368C8.50614 9.63666 8.48271 9.63935 8.45921 9.64193C8.43051 9.64508 8.40171 9.64762 8.37284 9.65017C8.35247 9.65197 8.33209 9.65388 8.31165 9.65538C8.27242 9.65826 8.23308 9.66054 8.19359 9.66233C8.18303 9.6628 8.17248 9.66366 8.16191 9.66406C8.10815 9.66609 8.05419 9.66753 8.00001 9.66753C7.95327 9.66753 7.90668 9.66687 7.86026 9.66536C7.5353 9.65497 7.21827 9.60762 6.91451 9.52257C6.77779 9.48511 6.64407 9.4405 6.51347 9.38976C6.50856 9.38785 6.50361 9.38604 6.49871 9.38411C6.43556 9.3593 6.37322 9.33291 6.31165 9.30512C6.30946 9.30414 6.30732 9.30307 6.30513 9.30208C6.05073 9.18672 5.8103 9.0464 5.58682 8.88411C5.58136 8.88015 5.57576 8.87638 5.57033 8.8724C5.29263 8.66866 5.04177 8.43089 4.82336 8.16536C4.81873 8.15973 4.81408 8.1541 4.80948 8.14844C4.63691 7.93635 4.48524 7.70676 4.35722 7.46267C4.35584 7.46004 4.35426 7.4575 4.35288 7.45486ZM11.6467 7.45486C11.194 8.32256 10.4412 9.00782 9.52432 9.37457C9.55727 9.49708 9.58466 9.62186 9.60635 9.7487C9.60818 9.75926 9.61025 9.76979 9.61199 9.78038C9.62905 9.88508 9.64205 9.99102 9.65105 10.0981C9.65423 10.1351 9.6567 10.1723 9.65887 10.2096C9.65999 10.2293 9.6615 10.2489 9.66234 10.2687C9.66489 10.3272 9.66668 10.3862 9.66668 10.4453C9.66668 10.5156 9.66412 10.5855 9.6606 10.6549C9.65945 10.6777 9.65779 10.7004 9.65626 10.7231C9.65313 10.7696 9.64922 10.8159 9.64454 10.862C9.64168 10.8903 9.63843 10.9185 9.635 10.9466C9.63012 10.9864 9.62452 11.0261 9.6185 11.0655C9.61422 11.0937 9.6099 11.1218 9.60505 11.1497C9.59787 11.1911 9.59002 11.2321 9.58161 11.273C9.57631 11.2988 9.57133 11.3246 9.56555 11.3503C9.55676 11.3892 9.5468 11.4277 9.53691 11.4661C9.52965 11.4944 9.52261 11.5227 9.51477 11.5508C9.50387 11.5897 9.49206 11.6282 9.48005 11.6667C9.46173 11.7254 9.44232 11.7836 9.42145 11.8411C9.41281 11.865 9.40405 11.8887 9.39498 11.9123C9.37929 11.9532 9.36245 11.9936 9.3455 12.0339C9.33748 12.0529 9.32949 12.0718 9.32119 12.0907C9.30563 12.1262 9.28955 12.1613 9.27302 12.1962C9.25998 12.2237 9.24672 12.251 9.23309 12.2782C9.21666 12.311 9.20002 12.3436 9.18274 12.3759C9.17117 12.3975 9.15909 12.4187 9.14715 12.4401C9.01413 12.6782 8.8582 12.9013 8.68187 13.1068C8.67607 13.1135 8.67079 13.1209 8.66494 13.1276C9.17395 13.4693 9.78463 13.6675 10.4445 13.6675C12.2217 13.6675 13.6666 12.2226 13.6667 10.4453C13.6666 9.13743 12.8793 8.00365 11.7565 7.5013L11.6467 7.45486ZM8.00001 2.3342C6.2227 2.3342 4.77781 3.77912 4.77779 5.55642C4.77779 5.92366 4.83957 6.27791 4.95184 6.6046L5.00305 6.74306C5.02472 6.79768 5.04797 6.85183 5.0725 6.90495C5.14624 7.06467 5.23288 7.21721 5.33074 7.36154C5.72218 7.93879 6.29587 8.38288 6.96963 8.61068L7.15149 8.66623L7.15409 8.66667C7.41805 8.74057 7.70163 8.77865 8.00001 8.77865C8.03728 8.77865 8.07432 8.77809 8.11112 8.77691C8.36894 8.7687 8.61495 8.73134 8.84593 8.66667L8.84854 8.66623C9.03272 8.61591 9.21032 8.54971 9.37979 8.46918C9.43631 8.44233 9.4918 8.41365 9.54645 8.38368C9.71041 8.29373 9.86582 8.19021 10.0109 8.07422C10.1074 7.99702 10.1995 7.9144 10.2865 7.82682C10.3737 7.73904 10.4559 7.64632 10.5326 7.54904C10.5876 7.47922 10.6387 7.40634 10.6879 7.33203C10.8099 7.14785 10.9145 6.95108 10.997 6.74306L11.0482 6.6046C11.1605 6.27791 11.2222 5.92366 11.2222 5.55642C11.2222 3.77912 9.77732 2.3342 8.00001 2.3342Z" fill="#6BA6FF"/></svg>