<svg width="16" height="16" viewBox="0 0 16 16" fill="none" xmlns="http://www.w3.org/2000/svg"><path id="icon" fill-rule="evenodd" clip-rule="evenodd" d="M2.22223 8.0004C2.22223 4.80956 4.80892 2.22287 7.99976 2.22287C11.1906 2.22287 13.7773 4.80956 13.7773 8.0004C13.7773 11.1912 11.1906 13.7779 7.99976 13.7779C4.80892 13.7779 2.22223 11.1912 2.22223 8.0004ZM7.99976 1.33398C4.318 1.33398 1.33334 4.31864 1.33334 8.0004C1.33334 11.6822 4.318 14.6668 7.99976 14.6668C11.6815 14.6668 14.6662 11.6822 14.6662 8.0004C14.6662 4.31864 11.6815 1.33398 7.99976 1.33398ZM6.49673 4.37163C7.29554 4.04075 8.18122 3.9827 9.01639 4.20649C9.25349 4.27002 9.49719 4.12931 9.56072 3.89222C9.62425 3.65512 9.48355 3.41141 9.24645 3.34789C8.22227 3.07346 7.13616 3.14464 6.15656 3.55041C5.17697 3.95617 4.35863 4.67383 3.82848 5.59208C3.29832 6.51034 3.08598 7.57787 3.22438 8.6291C3.36278 9.68034 3.84418 10.6565 4.59393 11.4063C4.7675 11.5799 5.0489 11.5799 5.22247 11.4063C5.39604 11.2327 5.39604 10.9513 5.22247 10.7777C4.61108 10.1664 4.21852 9.37031 4.10566 8.51308C3.9928 7.65584 4.16596 6.78532 4.59828 6.03653C5.03059 5.28773 5.69791 4.70251 6.49673 4.37163ZM12.108 6.4395C12.3451 6.37597 12.5888 6.51667 12.6523 6.75377C12.8712 7.57045 12.8712 8.43036 12.6523 9.24704C12.4335 10.0637 12.0035 10.8084 11.4057 11.4063C11.2321 11.5799 10.9507 11.5799 10.7772 11.4063C10.6036 11.2327 10.6036 10.9513 10.7772 10.7777C11.2647 10.2902 11.6153 9.68295 11.7937 9.01698C11.9722 8.35101 11.9722 7.6498 11.7937 6.98383C11.7302 6.74673 11.8709 6.50303 12.108 6.4395ZM11.3616 4.5811C11.2133 4.45661 10.9964 4.45855 10.8503 4.58569L7.23845 7.72842C6.70556 8.19209 6.71301 9.02218 7.25412 9.47623C7.79523 9.93028 8.614 9.79346 8.9781 9.18816L11.4459 5.08549C11.5457 4.91952 11.51 4.70559 11.3616 4.5811Z" fill="#D6DAE0"/></svg>