<svg preserveAspectRatio="none" width="100%" height="100%" overflow="visible" style="display: block;" viewBox="0 0 31.999 32" fill="none" xmlns="http://www.w3.org/2000/svg">
<g id="panel-item">
<path id="Union" d="M12.1553 9.50021C12.1553 9.87383 12.3636 10.2163 12.6953 10.3881L15.3247 11.7502C15.4668 11.8239 15.6246 11.8623 15.7847 11.8623H16.2135C16.3735 11.8623 16.5312 11.8239 16.6733 11.7503L19.3036 10.3881C19.6354 10.2163 19.8438 9.8738 19.8438 9.50013V9C19.8438 8.44772 20.2915 8 20.8437 8H22.999C23.5513 8 23.999 8.44772 23.999 9V10.3105C23.999 10.8628 23.5513 11.3105 22.999 11.3105H20.214C20.0541 11.3105 19.8966 11.3489 19.7546 11.4223L18.466 12.0889C18.2271 12.2124 18.0771 12.4589 18.0771 12.7278C18.0771 12.9975 18.2279 13.2445 18.4677 13.3677L20.0475 14.1795C20.1889 14.2521 20.3456 14.29 20.5046 14.29H22.998C23.5503 14.29 23.998 14.7378 23.998 15.29V16.6006C23.998 17.1529 23.5503 17.6006 22.998 17.6006H20.3057C20.1298 17.6006 19.9569 17.647 19.8047 17.7352L18.4926 18.4948C18.2355 18.6437 18.0771 18.9183 18.0771 19.2154C18.0771 19.5275 18.2516 19.8133 18.5291 19.956L19.7409 20.5788C19.8823 20.6515 20.039 20.6895 20.198 20.6895H22.998C23.5503 20.6895 23.998 21.1372 23.998 21.6895V23C23.998 23.5523 23.5503 24 22.998 24H20.8428C20.2905 24 19.8428 23.5523 19.8428 23V22.5062C19.8428 22.1313 19.633 21.7878 19.2995 21.6166L16.6359 20.2491C16.4946 20.1765 16.338 20.1387 16.1792 20.1387H15.8189C15.66 20.1387 15.5034 20.1765 15.3621 20.2491L12.9065 21.5101C12.573 21.6814 12.3633 22.0248 12.3633 22.3997V23C12.3633 23.5523 11.9156 24 11.3633 24H9.20801C8.65572 24 8.20801 23.5523 8.20801 23V21.6895C8.20801 21.1372 8.65572 20.6895 9.20801 20.6895H11.8019C11.961 20.6895 12.1177 20.6515 12.2592 20.5787L13.4704 19.9558C13.7476 19.8132 13.9219 19.5277 13.9219 19.216C13.9219 18.9191 13.7637 18.6447 13.5067 18.496L12.1924 17.7351C12.0401 17.647 11.8673 17.6006 11.6914 17.6006H9.20801C8.65572 17.6006 8.20801 17.1529 8.20801 16.6006V15.29C8.20801 14.7378 8.65572 14.29 9.20801 14.29H11.4944C11.6534 14.29 11.8101 14.2521 11.9515 14.1795L13.5313 13.3677C13.7711 13.2445 13.9219 12.9975 13.9219 12.7278C13.9219 12.4589 13.7719 12.2124 13.533 12.0889L12.2444 11.4223C12.1024 11.3489 11.9449 11.3105 11.785 11.3105H9C8.44772 11.3105 8 10.8628 8 10.3105V9C8 8.44772 8.44772 8 9 8H11.1553C11.7076 8 12.1553 8.44772 12.1553 9V9.50021ZM12.9067 14.9526C12.5731 15.1238 12.3633 15.4672 12.3633 15.8422V15.9559C12.3633 16.3126 12.5533 16.6423 12.8619 16.8212L15.117 18.1279C15.2694 18.2162 15.4423 18.2627 15.6184 18.2627H16.3797C16.5557 18.2627 16.7287 18.2162 16.881 18.128L19.3919 16.6733C19.671 16.5117 19.8428 16.2135 19.8428 15.891C19.8428 15.552 19.6532 15.2415 19.3516 15.0867L16.9406 13.8487C16.7993 13.7761 16.6427 13.7383 16.4839 13.7383H15.5141C15.3553 13.7383 15.1988 13.7761 15.0575 13.8486L12.9067 14.9526Z" fill="#F3F3F3"/>
</g>
</svg>
