<svg width="16" height="16" viewBox="0 0 16 16" fill="none" xmlns="http://www.w3.org/2000/svg"><path id="icon" fill-rule="evenodd" clip-rule="evenodd" d="M5.25065 11.4875H3.83532L3.83549 3.33396C3.83551 2.78169 4.28322 2.33398 4.83549 2.33398H11.9998C12.1839 2.33398 12.3331 2.48322 12.3331 2.66732V11.1542C12.3331 11.3382 12.1839 11.4875 11.9998 11.4875H5.2904C5.28487 11.4873 5.27931 11.4873 5.27373 11.4873L5.25065 11.4875ZM5.25408 12.4875H11.9998C12.7361 12.4875 13.3331 11.8905 13.3331 11.1542V2.66732C13.3331 1.93094 12.7361 1.33398 11.9998 1.33398H4.83549C3.73094 1.33398 2.83552 2.22939 2.83549 3.33394L2.8353 12.9167C2.83407 12.9409 2.83341 12.9653 2.83335 12.9898L2.83334 12.9972L2.83335 13.0047C2.83557 13.83 3.50403 14.4984 4.3293 14.5006L12.6667 14.5007C12.9428 14.5007 13.1667 14.2768 13.1667 14.0007C13.1667 13.7245 12.9428 13.5007 12.6667 13.5007L4.332 13.5007C4.05691 13.4999 3.83409 13.2771 3.83335 13.002V12.9925C3.83408 12.7187 4.05483 12.4965 4.32857 12.4938L5.25408 12.4875Z" fill="#D6DAE0"/></svg>