<svg width="16" height="16" viewBox="0 0 16 16" fill="none" xmlns="http://www.w3.org/2000/svg"><path id="icon" fill-rule="evenodd" clip-rule="evenodd" d="M1.2748 7.27581C0.874507 7.67609 0.874506 8.32507 1.2748 8.72535L3.01897 10.4695C3.41926 10.8698 4.06826 10.8698 4.46855 10.4695L6.21275 8.72532C6.61304 8.32505 6.61304 7.67607 6.21275 7.27579L4.46857 5.53165C4.06829 5.13137 3.41929 5.13137 3.019 5.53165L1.2748 7.27581ZM1.98191 8.01825C1.97215 8.00849 1.97215 7.99267 1.98191 7.98291L3.72612 6.23875C3.73588 6.22899 3.7517 6.22899 3.76146 6.23875L5.50564 7.98288C5.5154 7.99264 5.5154 8.00847 5.50564 8.01823L3.76143 9.76239C3.75167 9.77215 3.73585 9.77215 3.72609 9.76239L1.98191 8.01825ZM5.50323 11.5034C5.10294 11.9036 5.10294 12.5526 5.50323 12.9529L7.24741 14.697C7.64769 15.0973 8.29669 15.0973 8.69698 14.697L10.4412 12.9529C10.8415 12.5526 10.8415 11.9036 10.4412 11.5033L8.69701 9.75919C8.29672 9.35891 7.64772 9.35891 7.24743 9.75919L5.50323 11.5034ZM6.21034 12.2458C6.20058 12.236 6.20058 12.2202 6.21034 12.2105L7.95455 10.4663C7.96431 10.4565 7.98013 10.4565 7.98989 10.4663L9.73407 12.2104C9.74383 12.2202 9.74383 12.236 9.73407 12.2458L7.98986 13.9899C7.9801 13.9997 7.96428 13.9997 7.95452 13.9899L6.21034 12.2458ZM5.50331 4.49781C5.10302 4.09753 5.10303 3.44855 5.50331 3.04828L7.24752 1.30411C7.64781 0.903836 8.2968 0.903837 8.69709 1.30412L10.4413 3.04825C10.8416 3.44853 10.8416 4.09751 10.4413 4.49779L8.69707 6.24195C8.29678 6.64223 7.64778 6.64223 7.24749 6.24195L5.50331 4.49781ZM6.21043 3.75537C6.20067 3.76513 6.20067 3.78096 6.21043 3.79071L7.95461 5.53485C7.96437 5.54461 7.98019 5.54461 7.98995 5.53485L9.73416 3.79069C9.74392 3.78093 9.74392 3.76511 9.73416 3.75535L7.98998 2.01121C7.98022 2.00145 7.96439 2.00145 7.95464 2.01121L6.21043 3.75537ZM9.72979 7.27581C9.3295 7.67609 9.3295 8.32507 9.72979 8.72535L11.474 10.4695C11.8743 10.8698 12.5233 10.8698 12.9235 10.4695L14.6677 8.72532C15.068 8.32505 15.068 7.67607 14.6677 7.27579L12.9236 5.53165C12.5233 5.13137 11.8743 5.13137 11.474 5.53165L9.72979 7.27581ZM10.4369 8.01825C10.4271 8.00849 10.4271 7.99267 10.4369 7.98291L12.1811 6.23875C12.1909 6.22899 12.2067 6.22899 12.2165 6.23875L13.9606 7.98289C13.9704 7.99264 13.9704 8.00847 13.9606 8.01823L12.2164 9.76239C12.2067 9.77215 12.1908 9.77215 12.1811 9.76239L10.4369 8.01825Z" fill="#D6DAE0"/></svg>