<svg width="16" height="16" viewBox="0 0 16 16" fill="none" xmlns="http://www.w3.org/2000/svg"><g id="icon">
<path d="M2 6.31011V5.66472H3.15294V2.95043L2 3.66821V2.95043L3.39367 2.08789H3.95747V5.66472H4.8V6.31011H2Z" fill="#D6DAE0"/>
<path d="M6.24785 3.9992C6.24785 3.75374 6.44684 3.55476 6.6923 3.55476H13.7511C13.9966 3.55476 14.1956 3.75374 14.1956 3.9992C14.1956 4.24466 13.9966 4.44365 13.7511 4.44365H6.6923C6.44684 4.44365 6.24785 4.24466 6.24785 3.9992Z" fill="#D6DAE0"/>
<path d="M6.24785 7.9992C6.24785 7.75374 6.44684 7.55476 6.6923 7.55476H13.751C13.9965 7.55476 14.1955 7.75374 14.1955 7.9992C14.1955 8.24466 13.9965 8.44365 13.751 8.44365H6.6923C6.44684 8.44365 6.24785 8.24466 6.24785 7.9992Z" fill="#D6DAE0"/>
<path d="M6.6923 11.5548C6.44684 11.5548 6.24785 11.7537 6.24785 11.9992C6.24785 12.2447 6.44684 12.4436 6.6923 12.4436H13.7511C13.9966 12.4436 14.1955 12.2447 14.1955 11.9992C14.1955 11.7537 13.9966 11.5548 13.7511 11.5548H6.6923Z" fill="#D6DAE0"/>
<path d="M1.95312 12.5383V13.0416H4.90868V12.3665H3.12627C3.15455 12.3439 3.18255 12.3215 3.21026 12.2994C4.25567 11.4635 4.88924 10.957 4.88924 10.057C4.88924 9.31682 4.50035 8.81939 3.36609 8.81939C2.84757 8.81939 2.37442 8.93191 2.03738 9.09179V9.93861C2.34201 9.69581 2.76331 9.52408 3.21701 9.52408C3.77442 9.52408 4.03368 9.75503 4.03368 10.2465C4.03368 10.8336 3.51407 11.2544 2.75289 11.871C2.50819 12.0692 2.23852 12.2876 1.95312 12.5383Z" fill="#D6DAE0"/>
</g></svg>